<svg width="128" height="128" viewBox="0 0 128 128" fill="none" xmlns="http://www.w3.org/2000/svg">
<rect width="128" height="128" rx="32" fill="#111827"/>
<path d="M90.1333 37.8667C82.24 32.2667 72.64 29.3333 61.3333 29.3333C48.64 29.3333 37.6533 33.8133 28.2667 42.6667C18.88 51.52 14.1867 62.4 14.1867 75.3067C14.1867 88.32 18.88 99.0933 28.2667 107.627C37.6533 116.16 48.7467 120.427 61.6533 120.427C72.5333 120.427 81.8133 118.027 89.4933 113.12V96C81.6 102.507 72.64 105.813 62.6133 105.813C54.4 105.813 47.4667 103.2 41.92 98.08C36.3733 92.96 33.6 85.92 33.6 76.8533C33.6 68 36.3733 60.8533 41.92 55.3067C47.5733 49.76 54.72 46.9867 63.36 46.9867C72.5333 46.9867 81.4933 50.2933 90.1333 56.8V37.8667Z" fill="url(#paint0_linear_130_2)"/>
<path d="M74.3467 55.5733C70.08 52.48 64.8533 50.9333 58.6667 50.9333C51.9467 50.9333 46.1867 53.2267 41.3867 57.92C36.5867 62.6133 34.1867 68.3733 34.1867 75.2C34.1867 81.92 36.5867 87.6267 41.3867 92.32C46.2933 96.9067 52.2667 99.2 59.3067 99.2C65.1733 99.2 70.1333 97.8667 74.1867 95.1467V82.24C69.8133 86.1867 64.8533 88.16 59.3067 88.16C55.2533 88.16 51.7867 86.88 48.9067 84.32C46.1333 81.6533 44.7467 78.2933 44.7467 74.24C44.7467 70.2933 46.08 66.9333 48.7467 64.16C51.52 61.4933 55.0933 60.16 59.4667 60.16C64.8 60.16 69.6 62.1333 73.8667 66.08L74.3467 55.5733Z" fill="#FED7AA"/>
<defs>
<linearGradient id="paint0_linear_130_2" x1="24" y1="24" x2="104" y2="104" gradientUnits="userSpaceOnUse">
<stop stop-color="#FDBA74"/>
<stop offset="0.55" stop-color="#F97316"/>
<stop offset="1" stop-color="#C2410C"/>
</linearGradient>
</defs>
</svg>
